<?xml version="1.0" encoding="UTF-8"?>
<svg version="1.1" xmlns="http://www.w3.org/2000/svg" width="500" height="500">

    <path d="M 250 0 A 250 250 0 1 1 250 500 A 250 250 0 1 1 250 0 Z" fill="#090000"
        transform="translate(0,0)" />
    <path
        d="M0 0 C165 0 330 0 500 0 C500 165 500 330 500 500 C335 500 170 500 0 500 C0 335 0 170 0 0 Z M122 72 C121.40155273 72.43022461 120.80310547 72.86044922 120.18652344 73.30371094 C112.1003873 79.16581642 104.6972141 85.66890428 97.49169922 92.57128906 C96.11834504 93.88665218 94.7335176 95.1900085 93.34765625 96.4921875 C86.48207321 103.10831017 80.72573569 110.40717658 75 118 C74.2884375 118.928125 73.576875 119.85625 72.84375 120.8125 C39.6190297 165.11212706 24.95142758 222.77974826 32.30078125 277.57421875 C34.10038773 289.48282547 36.35111942 301.51054958 40 313 C40.20399414 313.65774414 40.40798828 314.31548828 40.61816406 314.99316406 C53.74747042 356.75494938 79.06638579 395.26414059 114 422 C114.55913086 422.43022461 115.11826172 422.86044922 115.69433594 423.30371094 C163.20907757 459.66887713 222.01228991 475.17585347 281.31689453 467.39355469 C319.73015128 461.75914433 356.96883848 445.62266309 387 421 C387.56428711 420.53867676 388.12857422 420.07735352 388.70996094 419.60205078 C429.4539663 386.05016906 456.53938376 340.00588752 466 288 C466.24556641 286.71971924 466.24556641 286.71971924 466.49609375 285.41357422 C476.55399092 231.97580031 463.16313523 173.85877721 433 129 C418.72529818 108.41532839 402.1232792 89.95899727 382 75 C381.44231934 74.5762207 380.88463867 74.15244141 380.31005859 73.71582031 C353.58102504 53.42140966 321.78123069 40.42442743 289 34 C287.83855469 33.76539063 286.67710937 33.53078125 285.48046875 33.2890625 C228.6502055 22.79029901 168.41026937 38.35547726 122 72 Z "
        fill="rgba(254,254,254,0)" transform="translate(0,0)" />
    <path
        d="M0 0 C11.21885796 0.50994809 20.40929379 7.72093062 29.01171875 14.30419922 C31.66453726 16.33120655 33.80714748 17.93571583 37 19 C36.34 17.35 35.68 15.7 35 14 C51.31464355 8.56178548 73.01719513 14.81802054 87.95654297 21.93164062 C95.99151705 26.02308192 103.25615741 31.01983297 110 37 C110.71929687 37.62519531 111.43859375 38.25039062 112.1796875 38.89453125 C117.45719976 43.78369827 121.26330861 49.32413161 124 56 C124 57.32 124 58.64 124 60 C119.38 61.32 114.76 62.64 110 64 C111.7325 63.67 113.465 63.34 115.25 63 C118.64461639 62.3534064 121.52023497 62 125 62 C125.33 63.65 125.66 65.3 126 67 C121.05 67.495 121.05 67.495 116 68 C119.3 68 122.6 68 126 68 C126.33 69.65 126.66 71.3 127 73 C121.72 73 116.44 73 111 73 C116.28 73.33 121.56 73.66 127 74 C127.63158013 83.15791193 125.57609844 92.09060781 121.30078125 100.23828125 C119.61453021 102.99412687 119.61453021 102.99412687 121 106 C121.66 106.33 122.32 106.66 123 107 C123 107.66 123 108.32 123 109 C121.68 109.33 120.36 109.66 119 110 C119.50789062 110.58265625 120.01578125 111.1653125 120.5390625 111.765625 C133 126.60674157 133 126.60674157 133 135 C132.01 135.33 131.02 135.66 130 136 C130.33773437 136.50789062 130.67546875 137.01578125 131.0234375 137.5390625 C131.69246094 138.57160156 131.69246094 138.57160156 132.375 139.625 C132.81585938 140.29789063 133.25671875 140.97078125 133.7109375 141.6640625 C138.03882103 149.50671205 138.20596134 158.08177505 136.1015625 166.6640625 C135.3942202 168.92655454 134.65459337 171.17934472 133.875 173.41796875 C132.89301595 175.86132129 132.89301595 175.86132129 133 178 C133.33773437 177.25234375 133.67546875 176.5046875 134.0234375 175.734375 C134.46945312 174.74953125 134.91546875 173.7646875 135.375 172.75 C135.81585938 171.77546875 136.25671875 170.8009375 136.7109375 169.796875 C137.76638138 167.50688161 138.85543935 165.24633399 140 163 C147.27306464 167.84870976 148.99062506 174.36083556 150.75 182.5 C151.1774559 184.66456393 151.59780784 186.83059985 152 189 C152.60328125 189.08507812 153.2065625 189.17015625 153.828125 189.2578125 C158.33829218 190.79905668 159.96850653 195.98339419 162 200 C171.09047074 218.81934249 178.19973849 240.03696778 172.375 260.9375 C168.45050258 271.90421404 162.62012173 281.05440337 152.03515625 286.53515625 C134.04864847 294.31494461 134.04864847 294.31494461 126 292 C122.08937236 287.99648335 120.08862291 283.00730893 119.84375 277.4609375 C119.91692123 272.43727526 120.64939019 267.56935738 121.5 262.625 C121.66798096 261.64635986 121.83596191 260.66771973 122.0090332 259.65942383 C124.29954456 247.26411719 127.33269962 233.33460076 133 222 C120.10617715 233.87982939 118.24412438 260.51517859 115 277 C113.97519531 277.04898437 112.95039063 277.09796875 111.89453125 277.1484375 C110.5338294 277.22351071 109.17315356 277.29905655 107.8125 277.375 C106.80219727 277.42140625 106.80219727 277.42140625 105.77148438 277.46875 C101.80321025 277.70103922 98.59270121 278.28387476 95 280 C96.15757812 279.95359375 97.31515625 279.9071875 98.5078125 279.859375 C100.04684906 279.82183752 101.5859137 279.78543949 103.125 279.75 C103.88554687 279.71648437 104.64609375 279.68296875 105.4296875 279.6484375 C110.78285844 279.55614145 113.76617311 280.42448156 118 284 C120.61527661 288.0100908 121.74411424 291.21640847 121 296 C119 297.875 119 297.875 117 299 C116.77213542 296.94921875 116.54427083 294.8984375 116.31640625 292.84765625 C116.18113386 290.98859771 116.18113386 290.98859771 115 290 C114.814375 291.918125 114.814375 291.918125 114.625 293.875 C114.25 297.75 114.25 297.75 112 300 C108.98173347 300.27240673 106.03629378 300.08675125 103 300 C102.67 296.37 102.34 292.74 102 289 C101.34 289 100.68 289 100 289 C100.05220703 290.04800781 100.05220703 290.04800781 100.10546875 291.1171875 C100.13253906 292.02726562 100.15960938 292.93734375 100.1875 293.875 C100.23970703 295.23238281 100.23970703 295.23238281 100.29296875 296.6171875 C100.19628906 297.40351563 100.09960938 298.18984375 100 299 C96.76746204 301.15502531 95.74849077 301.46856135 92 301 C90.35546875 299.8046875 90.35546875 299.8046875 89 298 C88.70703125 295.51953125 88.70703125 295.51953125 88.8125 292.8125 C88.85310547 291.46091797 88.85310547 291.46091797 88.89453125 290.08203125 C88.92933594 289.39496094 88.96414063 288.70789063 89 288 C88.34 288 87.68 288 87 288 C86.505 293.94 86.505 293.94 86 300 C82 299 82 299 81 298 C80.88643809 295.82470339 80.8431158 293.64572414 80.82641602 291.4675293 C80.819729 290.7844017 80.81304199 290.10127411 80.80615234 289.39744568 C80.79206424 287.90729775 80.78018229 286.41712776 80.77020454 284.92694664 C80.75379766 282.55854378 80.73055152 280.19029985 80.70530701 277.82197571 C80.63458326 271.08541836 80.57487309 264.34879009 80.52319336 257.61206055 C80.49111564 253.49349979 80.44975223 249.37511185 80.40299797 245.25669289 C80.3871254 243.69526142 80.37473711 242.13379006 80.36609077 240.57230186 C80.31547889 231.549555 79.85241636 222.87092803 78 214 C78.00222061 214.68221619 78.00444122 215.36443237 78.00672913 216.06732178 C78.02702622 222.59505578 78.04212065 229.12278059 78.05181217 235.6505394 C78.05696263 239.00402469 78.06448444 242.3574633 78.07543945 245.7109375 C78.1571709 271.40345817 78.1571709 271.40345817 77.55859375 283.828125 C77.51960464 284.65729431 77.48061554 285.48646362 77.44044495 286.34075928 C77.13025005 291.86974995 77.13025005 291.86974995 76 293 C73.63601532 293.1007812 71.30188689 293.13973215 68.9375 293.1328125 C68.23101318 293.13376923 67.52452637 293.13472595 66.79663086 293.13571167 C65.30029207 293.13639333 63.80395033 293.13454005 62.30761719 293.13037109 C60.00969843 293.12502257 57.71197514 293.13031651 55.4140625 293.13671875 C53.96354123 293.13605797 52.51302009 293.1347768 51.0625 293.1328125 C50.0250061 293.13584885 50.0250061 293.13584885 48.96655273 293.13894653 C44.11495224 293.11495224 44.11495224 293.11495224 43 292 C42.58800695 289.30556543 42.23324076 286.6238815 41.9140625 283.91796875 C41.8124733 283.08454453 41.71088409 282.2511203 41.60621643 281.3924408 C41.27443019 278.65800568 40.94933074 275.92282875 40.625 273.1875 C40.40022973 271.31167622 40.1753759 269.43586245 39.95043945 267.56005859 C39.2912852 262.04108371 38.64365912 256.5208011 38 251 C37.8650412 249.84621857 37.8650412 249.84621857 37.72735596 248.66912842 C37.20044254 244.15589042 36.68849927 239.64120434 36.1875 235.125 C36.06391113 234.0424292 35.94032227 232.9598584 35.81298828 231.84448242 C35.0975974 225.2037431 34.85920097 218.67766147 35 212 C34.34 212 33.68 212 33 212 C33.29540713 230.56990336 34.77595145 248.9306811 36.62792969 267.40136719 C38.94439694 290.86115093 38.94439694 290.86115093 38 298 C35 300 35 300 30 300 C29.505 295.05 29.505 295.05 29 290 C28.731875 291.60875 28.46375 293.2175 28.1875 294.875 C27.73046875 297.6171875 27.73046875 297.6171875 27 300 C23.2794164 302.48038907 21.40203429 302.46337203 17 302 C14.625 300.5 14.625 300.5 13 298 C12.39108153 295.29598916 12.18555874 292.78338105 12 290 C11.34 293.3 10.68 296.6 10 300 C6.625 300.1875 6.625 300.1875 3 300 C0.5705484 296.3558226 0.83820425 294.28758728 1 290 C-0.96822886 291.96822886 -0.66248381 295.34808709 -1 298 C-1.99 297.34 -2.98 296.68 -4 296 C-4.6050512 292.196821 -4.15773427 290.30333513 -2.375 286.875 C0.4692572 283.43195182 3.3204852 280.30372666 7.98583984 279.77490234 C10.13831261 279.82945234 12.235887 280.00630358 14.375 280.25 C15.47908203 280.34861328 15.47908203 280.34861328 16.60546875 280.44921875 C18.40557086 280.6128644 20.20316872 280.80367164 22 281 C17.25645564 278.77343836 13.27749285 277.53851968 8 277 C2.72819947 262.07783228 -2.44258927 247.18808676 -6.62890625 231.91796875 C-7.55398896 228.5448095 -8.5434345 225.2008026 -9.58984375 221.86328125 C-9.85700195 221.00549072 -10.12416016 220.1477002 -10.39941406 219.26391602 C-10.89439849 217.68496475 -11.39658805 216.1082355 -11.90917969 214.53491211 C-16.73943836 199.00932261 -17.55937965 183.65600739 -17.5559082 167.48950195 C-17.56248433 164.07064483 -17.61720291 160.6546769 -17.67382812 157.23632812 C-17.77402876 143.70924219 -16.33805632 132.47562738 -11 120 C-11.99 119.34 -12.98 118.68 -14 118 C-12.02 117.01 -12.02 117.01 -10 116 C-9.236875 116.78375 -8.47375 117.5675 -7.6875 118.375 C-5.09108195 121.07257717 -5.09108195 121.07257717 -2 123 C-2.47050781 122.28714844 -2.94101563 121.57429688 -3.42578125 120.83984375 C-9.32376941 111.76695513 -12.43124989 104.84547618 -13 94 C-14.485 94.495 -14.485 94.495 -16 95 C-15.85786703 93.10388566 -15.71113093 91.20811606 -15.5625 89.3125 C-15.48128906 88.25675781 -15.40007812 87.20101562 -15.31640625 86.11328125 C-15.03548319 83.34913703 -14.59843148 80.71054259 -14 78 C-14.99 77.67 -15.98 77.34 -17 77 C-14 68 -14 68 -13.25366211 66.14770508 C-10.66483516 59.34450867 -10.46978347 52.78075382 -10.1875 45.5625 C-9.63874366 35.28105922 -8.40722768 25.46792174 -6.0625 15.4375 C-5.80944092 14.34445557 -5.55638184 13.25141113 -5.2956543 12.12524414 C-4.1147111 7.36318074 -3.18541683 3.82017386 0 0 Z "
        fill="#FDFDFD" transform="translate(189,102)" />
    <path
        d="M0 0 C1.25941406 0.29777344 2.51882813 0.59554688 3.81640625 0.90234375 C54.15281899 13.55432236 101.14183905 42.76830194 133 84 C133.78503906 84.96808594 134.57007813 85.93617187 135.37890625 86.93359375 C173.89695001 134.8401735 189.90614801 197.86712992 184.48388672 258.55224609 C183.36048964 268.80822822 181.257462 278.94187266 179 289 C178.72542969 290.2271875 178.45085937 291.454375 178.16796875 292.71875 C170.37916681 324.30074142 156.21341142 354.49885016 136 380 C135.03513672 381.25296875 135.03513672 381.25296875 134.05078125 382.53125 C122.67697569 397.1118689 109.60782618 410.66730428 95 422 C94.10837158 422.69826904 94.10837158 422.69826904 93.19873047 423.41064453 C83.85989909 430.69896757 74.32873083 437.20339743 64 443 C63.36046387 443.36689941 62.72092773 443.73379883 62.06201172 444.11181641 C25.82610933 464.80907484 -15.26833781 474.26047948 -56.75 474.1875 C-57.44721161 474.18656342 -58.14442322 474.18562683 -58.86276245 474.18466187 C-123.03389355 473.99880189 -182.62968113 446.31457047 -227.8125 401.4375 C-233.61085578 395.58483051 -239.028651 389.58047389 -244 383 C-244.47614746 382.37851074 -244.95229492 381.75702148 -245.44287109 381.11669922 C-284.19998128 330.2728712 -302.02546166 265.34838737 -293.87280273 201.79174805 C-287.66845671 160.76516764 -271.9860586 120.57604828 -246 88 C-245.28328125 87.09121094 -244.5665625 86.18242188 -243.828125 85.24609375 C-232.02677637 70.53625672 -218.97903983 56.49812575 -204 45 C-203.09096924 44.29302979 -203.09096924 44.29302979 -202.16357422 43.57177734 C-171.72302345 20.06761841 -137.14138746 5.7506082 -99.85327148 -2.52270508 C-97.92438323 -2.95030493 -97.92438323 -2.95030493 -96 -4 C-64.74404694 -9.06154323 -30.68019508 -7.41037204 0 0 Z M-183 56 C-183.59844727 56.43022461 -184.19689453 56.86044922 -184.81347656 57.30371094 C-192.8996127 63.16581642 -200.3027859 69.66890428 -207.50830078 76.57128906 C-208.88165496 77.88665218 -210.2664824 79.1900085 -211.65234375 80.4921875 C-218.51792679 87.10831017 -224.27426431 94.40717658 -230 102 C-230.7115625 102.928125 -231.423125 103.85625 -232.15625 104.8125 C-265.3809703 149.11212706 -280.04857242 206.77974826 -272.69921875 261.57421875 C-270.89961227 273.48282547 -268.64888058 285.51054958 -265 297 C-264.79600586 297.65774414 -264.59201172 298.31548828 -264.38183594 298.99316406 C-251.25252958 340.75494938 -225.93361421 379.26414059 -191 406 C-190.44086914 406.43022461 -189.88173828 406.86044922 -189.30566406 407.30371094 C-141.79092243 443.66887713 -82.98771009 459.17585347 -23.68310547 451.39355469 C14.73015128 445.75914433 51.96883848 429.62266309 82 405 C82.56428711 404.53867676 83.12857422 404.07735352 83.70996094 403.60205078 C124.4539663 370.05016906 151.53938376 324.00588752 161 272 C161.24556641 270.71971924 161.24556641 270.71971924 161.49609375 269.41357422 C171.55399092 215.97580031 158.16313523 157.85877721 128 113 C113.72529818 92.41532839 97.1232792 73.95899727 77 59 C76.44231934 58.5762207 75.88463867 58.15244141 75.31005859 57.71582031 C48.58102504 37.42140966 16.78123069 24.42442743 -16 18 C-17.16144531 17.76539063 -18.32289063 17.53078125 -19.51953125 17.2890625 C-76.3497945 6.79029901 -136.58973063 22.35547726 -183 56 Z "
        fill="#fbfbfb" transform="translate(305,16)" />
    <path
        d="M0 0 C1.25941406 0.29777344 2.51882813 0.59554688 3.81640625 0.90234375 C54.15281899 13.55432236 101.14183905 42.76830194 133 84 C133.78503906 84.96808594 134.57007813 85.93617187 135.37890625 86.93359375 C173.89695001 134.8401735 189.90614801 197.86712992 184.48388672 258.55224609 C183.36048964 268.80822822 181.257462 278.94187266 179 289 C178.72542969 290.2271875 178.45085937 291.454375 178.16796875 292.71875 C170.37916681 324.30074142 156.21341142 354.49885016 136 380 C135.03513672 381.25296875 135.03513672 381.25296875 134.05078125 382.53125 C122.67697569 397.1118689 109.60782618 410.66730428 95 422 C94.10837158 422.69826904 94.10837158 422.69826904 93.19873047 423.41064453 C83.85989909 430.69896757 74.32873083 437.20339743 64 443 C63.36046387 443.36689941 62.72092773 443.73379883 62.06201172 444.11181641 C25.82610933 464.80907484 -15.26833781 474.26047948 -56.75 474.1875 C-57.44721161 474.18656342 -58.14442322 474.18562683 -58.86276245 474.18466187 C-123.03389355 473.99880189 -182.62968113 446.31457047 -227.8125 401.4375 C-233.61085578 395.58483051 -239.028651 389.58047389 -244 383 C-244.47614746 382.37851074 -244.95229492 381.75702148 -245.44287109 381.11669922 C-284.19998128 330.2728712 -302.02546166 265.34838737 -293.87280273 201.79174805 C-287.66845671 160.76516764 -271.9860586 120.57604828 -246 88 C-245.28328125 87.09121094 -244.5665625 86.18242188 -243.828125 85.24609375 C-232.02677637 70.53625672 -218.97903983 56.49812575 -204 45 C-203.09096924 44.29302979 -203.09096924 44.29302979 -202.16357422 43.57177734 C-171.72302345 20.06761841 -137.14138746 5.7506082 -99.85327148 -2.52270508 C-97.92438323 -2.95030493 -97.92438323 -2.95030493 -96 -4 C-64.74404694 -9.06154323 -30.68019508 -7.41037204 0 0 Z M-106 3 C-106.74008301 3.16338867 -107.48016602 3.32677734 -108.24267578 3.49511719 C-149.47333034 12.62373766 -188.12794577 33.62978787 -218.21923828 63.25 C-220.0158347 65.01556116 -221.83252449 66.75841596 -223.65234375 68.5 C-231.54057822 76.12550605 -238.5224996 84.14843942 -245 93 C-246.15242188 94.57007812 -246.15242188 94.57007812 -247.328125 96.171875 C-264.8545361 120.8069004 -277.38895121 148.0422311 -284.8125 177.3125 C-285.10278076 178.45662354 -285.39306152 179.60074707 -285.69213867 180.77954102 C-292.76936694 209.82979846 -293.4746461 241.68245936 -288.75 271.1875 C-288.44328369 273.10755859 -288.44328369 273.10755859 -288.13037109 275.06640625 C-286.65697084 283.56602131 -284.53097287 291.75781014 -282 300 C-281.72591309 300.90548584 -281.45182617 301.81097168 -281.16943359 302.74389648 C-271.74269933 333.32583812 -256.98405244 361.73480481 -236 386 C-235.35289062 386.75796875 -234.70578125 387.5159375 -234.0390625 388.296875 C-222.53527071 401.43147253 -210.15765555 413.75139067 -196 424 C-194.43572266 425.14662109 -194.43572266 425.14662109 -192.83984375 426.31640625 C-165.34122938 445.90959493 -134.12560673 459.42666854 -101 466 C-100.21544434 466.15694336 -99.43088867 466.31388672 -98.62255859 466.47558594 C-87.78208708 468.58869399 -77.03695525 469.72725811 -66 470 C-65.13246094 470.02191406 -64.26492187 470.04382813 -63.37109375 470.06640625 C-9.30179723 471.20710871 43.86490157 456.37258016 87 423 C87.81339844 422.37867188 88.62679688 421.75734375 89.46484375 421.1171875 C96.30853964 415.77629371 102.71933852 409.98471408 109 404 C109.90057129 403.14245117 109.90057129 403.14245117 110.81933594 402.26757812 C119.7028565 393.74636945 127.74582318 384.94800479 135 375 C135.76699219 373.95457031 136.53398437 372.90914063 137.32421875 371.83203125 C158.08347862 342.66762602 171.04905541 310.01457134 178 275 C178.15388184 274.26088379 178.30776367 273.52176758 178.46630859 272.76025391 C189.9879169 215.60062089 174.58384999 152.91955094 143.171875 104.57421875 C137.90225665 96.68079251 132.21124494 89.18069515 126 82 C125.34128906 81.23042969 124.68257813 80.46085937 124.00390625 79.66796875 C113.2752451 67.43851191 101.80875756 55.89068874 88.68701172 46.24267578 C87.02898451 45.02135039 85.39123502 43.77622084 83.75390625 42.52734375 C30.85096545 2.80097185 -41.68723201 -12.01719456 -106 3 Z "
        fill="#101010" transform="translate(305,16)" />
    <path
        d="M0 0 C2.23183579 3.34775369 2.78558672 5.83443772 3.6796875 9.75 C6.27974558 20.66483208 9.74060008 31.30849139 13.125 42 C14.0779772 45.01945339 15.02955486 48.03933083 15.97848511 51.06005859 C16.56361544 52.92186027 17.15112473 54.78291667 17.7414856 56.64306641 C22.79492354 72.69218351 22.79492354 72.69218351 21 77 C20.236875 77.556875 19.47375 78.11375 18.6875 78.6875 C15.77999362 81.18930781 15.15832379 82.62943183 13.83203125 86.14453125 C13.48503174 87.05178955 13.13803223 87.95904785 12.78051758 88.89379883 C12.52294678 89.58884521 12.26537598 90.2838916 12 91 C7.53838681 91.10032167 3.07740433 91.17213763 -1.38500977 91.21972656 C-2.89684512 91.23960437 -4.4086061 91.26671673 -5.92016602 91.30175781 C-16.0989713 91.53148193 -24.39168817 90.72368 -34 87 C-34 86.34 -34 85.68 -34 85 C-33.13048706 84.75878418 -33.13048706 84.75878418 -32.2434082 84.51269531 C-29.59614387 83.77077336 -26.95445802 83.01059137 -24.3125 82.25 C-23.40048828 81.99734375 -22.48847656 81.7446875 -21.54882812 81.484375 C-16.59193969 80.04237109 -12.7403483 78.74796611 -9 75 C-8.67 74.34 -8.34 73.68 -8 73 C-3.72164052 74.82949893 -1.21084215 77.7580554 1.90234375 81.125 C4.16579756 83.14819894 6.13906804 84.0446975 9 85 C7.5459375 83.6696875 7.5459375 83.6696875 6.0625 82.3125 C-6.86455434 69.30678204 -13.28351598 54.29820086 -13.31689453 36.03271484 C-13.10608926 23.13715793 -8.02313047 10.11819125 0 0 Z "
        fill="#FAFAFA" transform="translate(169,304)" />
    <path
        d="M0 0 C2.33744878 1.63712014 2.58763052 2.50136845 3.15527344 5.26098633 C3.32317383 6.06568359 3.49107422 6.87038086 3.6640625 7.69946289 C3.89947754 8.99835449 3.89947754 8.99835449 4.13964844 10.32348633 C4.30948242 11.20746094 4.47931641 12.09143555 4.65429688 13.00219727 C6.21101804 21.8006475 6.27663459 30.42280489 5.88964844 39.32348633 C1.90252523 37.49102061 -1.6911966 35.08492858 -5.36035156 32.69848633 C-6.01003906 32.27825195 -6.65972656 31.85801758 -7.32910156 31.42504883 C-8.92404037 30.3930296 -10.51735825 29.35850605 -12.11035156 28.32348633 C-11.56871796 23.41910538 -10.07132028 19.9292952 -7.67285156 15.63598633 C-7.05539062 14.51836914 -6.43792969 13.40075195 -5.80175781 12.24926758 C-4.63703528 10.23453969 -3.40123165 8.25980646 -2.11035156 6.32348633 C-7.90657471 12.11970948 -11.68852868 18.96138255 -15.11035156 26.32348633 C-22.53535156 23.35348633 -22.53535156 23.35348633 -30.11035156 20.32348633 C-26.02090714 12.14459748 -16.34421264 7.25669255 -8.61035156 2.63598633 C-8.02350586 2.27279297 -7.43666016 1.90959961 -6.83203125 1.53540039 C-2.67655327 -0.85802049 -2.67655327 -0.85802049 0 0 Z "
        fill="#F6F6F6" transform="translate(295.1103515625,95.676513671875)" />
    <path
        d="M0 0 C6.25320868 0.80058381 9.06953937 4.3414011 13 9 C21.51568087 20.42506895 21.51568087 20.42506895 21 27 C19.02164922 30.51795441 16.89924024 32.70025325 13 34 C13.66 32.68 14.32 31.36 15 30 C10.93597861 30.52393307 8.86366696 31.59729777 5.875 34.375 C5.21242187 34.98085937 4.54984375 35.58671875 3.8671875 36.2109375 C2.67585212 37.35242621 1.51072517 38.52236588 0.3828125 39.7265625 C-1 41 -1 41 -3 41 C-5.06781593 35.86753257 -5.34849567 31.38266255 -5.3125 25.9375 C-5.30976074 25.10347656 -5.30702148 24.26945312 -5.30419922 23.41015625 C-5.16954154 15.36165133 -4.56397109 6.84595664 0 0 Z "
        fill="#F7F7F7" transform="translate(191,108)" />
    <path
        d="M0 0 C3.37588716 1.78388985 6.23772524 3.7649665 7.91796875 7.23046875 C7.91796875 9.73046875 7.91796875 9.73046875 6.91796875 12.23046875 C2.31064804 16.48338017 -0.6883786 17.60264915 -6.8203125 17.50390625 C-10.32240392 17.08051005 -11.86504081 15.93242585 -14.08203125 13.23046875 C-14.89453125 9.48046875 -14.89453125 9.48046875 -15.08203125 6.23046875 C-17.39203125 6.89046875 -19.70203125 7.55046875 -22.08203125 8.23046875 C-21.7198905 5.62305536 -21.38892531 4.49611737 -19.3671875 2.74609375 C-13.05207723 -0.84985656 -7.07355892 -2.61442984 0 0 Z "
        fill="#070707" transform="translate(242.08203125,147.76953125)" />
    <path
        d="M0 0 C6.25320868 0.80058381 9.06953937 4.3414011 13 9 C21.51568087 20.42506895 21.51568087 20.42506895 21 27 C19.02164922 30.51795441 16.89924024 32.70025325 13 34 C13.66 32.68 14.32 31.36 15 30 C10.93597861 30.52393307 8.86366696 31.59729777 5.875 34.375 C5.21242187 34.98085937 4.54984375 35.58671875 3.8671875 36.2109375 C2.67585212 37.35242621 1.51072517 38.52236588 0.3828125 39.7265625 C-1 41 -1 41 -3 41 C-5.06781593 35.86753257 -5.34849567 31.38266255 -5.3125 25.9375 C-5.30976074 25.10347656 -5.30702148 24.26945312 -5.30419922 23.41015625 C-5.16954154 15.36165133 -4.56397109 6.84595664 0 0 Z M1 2 C-2.31358755 13.73562257 -2.33768469 24.90222955 -2 37 C-1.34 37 -0.68 37 0 37 C0.37125 36.278125 0.7425 35.55625 1.125 34.8125 C4.77575368 29.33636948 10.77219279 26.71264698 17 25 C14.91660509 16.66642036 10.71140266 10.34490313 5 4 C2.86471308 2.65421794 2.86471308 2.65421794 1 2 Z "
        fill="#181818" transform="translate(191,108)" />
    <path
        d="M0 0 C2.5625 1.4375 2.5625 1.4375 4 3 C4 3.66 4 4.32 4 5 C2.68 5 1.36 5 0 5 C0.12375 6.3303125 0.12375 6.3303125 0.25 7.6875 C-0.06235971 11.82626618 -0.8809965 13.28086874 -4 16 C-7.44895842 16.48406434 -9.75979585 16.66144221 -12.875 15 C-14.66588922 11.81619695 -15.25285806 8.60322729 -15 5 C-10.90300631 -1.63995528 -7.10400394 -1.45108429 0 0 Z "
        fill="#090909" transform="translate(295,144)" />
    <path
        d="M0 0 C3.96 0 7.92 0 12 0 C12.33 1.32 12.66 2.64 13 4 C12.525625 4.5775 12.05125 5.155 11.5625 5.75 C9.1558128 9.21562956 9.66396181 11.83312645 10 16 C12.35953094 18.35953094 13.77895617 18.49141413 17 19 C16.67 19.99 16.34 20.98 16 22 C11.44615385 22.36923077 11.44615385 22.36923077 9.1875 20.5 C8.795625 20.005 8.40375 19.51 8 19 C5.77306531 20.03393396 4.02608314 20.97661512 2.1875 22.625 C-0.97043776 24.60998945 -3.35531071 24.40496548 -7 24 C-7.66 23.01 -8.32 22.02 -9 21 C-7.1746875 20.9071875 -7.1746875 20.9071875 -5.3125 20.8125 C-1.97023436 20.37913341 -0.88460741 19.91826358 2 17.875 C4.23472155 15.07672481 4.23472155 15.07672481 4.6875 11.4375 C4.3271095 7.73670708 4.3271095 7.73670708 1 5.5625 C0.01 5.046875 -0.98 4.53125 -2 4 C-1.34 2.68 -0.68 1.36 0 0 Z "
        fill="#141414" transform="translate(265,163)" />
    <path
        d="M0 0 C0.33 1.65 0.66 3.3 1 5 C-5.41688675 5.10349817 -11.62694402 4.74507544 -18 4 C-18 3.01 -18 2.02 -18 1 C-11.95170514 0.10395632 -6.1105424 -0.11269443 0 0 Z "
        fill="#EAEAEA" transform="translate(315,170)" />
    <path
        d="M0 0 C0.33 1.65 0.66 3.3 1 5 C-7.415 5.495 -7.415 5.495 -16 6 C-16 5.34 -16 4.68 -16 4 C-16.66 4 -17.32 4 -18 4 C-17.67 3.34 -17.34 2.68 -17 2 C-15.07421875 1.62109375 -15.07421875 1.62109375 -12.6875 1.4375 C-10.367006 1.24955916 -8.21308707 1.05500335 -5.95703125 0.47265625 C-4 0 -4 0 0 0 Z "
        fill="#ECECEC" transform="translate(314,164)" />
    <path
        d="M0 0 C0.33 0 0.66 0 1 0 C1 7.92 1 15.84 1 24 C0.34 24 -0.32 24 -1 24 C-2.39847697 19.80456908 -2.18425263 15.83118623 -2.1875 11.4375 C-2.19974609 10.56158203 -2.21199219 9.68566406 -2.22460938 8.78320312 C-2.22654297 7.94595703 -2.22847656 7.10871094 -2.23046875 6.24609375 C-2.23663208 5.09645142 -2.23663208 5.09645142 -2.24291992 3.92358398 C-2 2 -2 2 0 0 Z "
        fill="#0B0B0B" transform="translate(188,122)" />
    <path
        d="M0 0 C0 0.33 0 0.66 0 1 C-4.35289756 1.6751323 -8.70749743 2.33859376 -13.0625 3 C-14.29162109 3.19078125 -15.52074219 3.3815625 -16.78710938 3.578125 C-18.58051758 3.84882813 -18.58051758 3.84882813 -20.41015625 4.125 C-22.05189819 4.37636719 -22.05189819 4.37636719 -23.72680664 4.6328125 C-27.17743681 5.0199049 -30.53064309 5.06143853 -34 5 C-30.41178954 2.90535938 -26.66224166 2.13005296 -22.625 1.375 C-21.92761719 1.24311279 -21.23023438 1.11122559 -20.51171875 0.9753418 C-13.64186998 -0.22579474 -6.9701691 -0.29405401 0 0 Z "
        fill="#2A2A2A" transform="translate(236,175)" />
    <path
        d="M0 0 C-3.52598418 3.52598418 -8.76416428 3.97647101 -13.5 5.1875 C-15.10681641 5.61579102 -15.10681641 5.61579102 -16.74609375 6.05273438 C-17.76832031 6.31763672 -18.79054687 6.58253906 -19.84375 6.85546875 C-21.25430664 7.22128052 -21.25430664 7.22128052 -22.69335938 7.59448242 C-25 8 -25 8 -27 7 C-8.91271963 -0.58126432 -8.91271963 -0.58126432 0 0 Z "
        fill="#303030" transform="translate(237,179)" />
    <path
        d="M0 0 C0.66 0.33 1.32 0.66 2 1 C1.16855469 2.42892578 1.16855469 2.42892578 0.3203125 3.88671875 C-0.41163189 5.15354557 -1.14339305 6.42047827 -1.875 7.6875 C-2.23980469 8.31333984 -2.60460937 8.93917969 -2.98046875 9.58398438 C-4.93741197 12.98194942 -6.65607739 16.30067619 -8 20 C-8.99 19.67 -9.98 19.34 -11 19 C-9.51217153 12.71805757 -5.73394339 8.11655923 -2 3 C-1.34 2.01 -0.68 1.02 0 0 Z "
        fill="#1A1A1A" transform="translate(292,101)" />
    <path
        d="M0 0 C0.70189453 0.00451172 1.40378906 0.00902344 2.12695312 0.01367188 C3.85550538 0.02543073 5.58401365 0.04336546 7.3125 0.0625 C7.3125 0.3925 7.3125 0.7225 7.3125 1.0625 C5.3325 1.3925 3.3525 1.7225 1.3125 2.0625 C1.3125 2.3925 1.3125 2.7225 1.3125 3.0625 C-6.6075 3.5575 -6.6075 3.5575 -14.6875 4.0625 C-9.49923757 0.17130318 -6.22675381 -0.07558151 0 0 Z "
        fill="#333333" transform="translate(296.6875,378.9375)" />
    <path
        d="M0 0 C-8.15787289 4.57756394 -14.69993576 5.66534641 -24 5 C-24 4.67 -24 4.34 -24 4 C-22.48019531 3.70996094 -22.48019531 3.70996094 -20.9296875 3.4140625 C-19.57808432 3.15125077 -18.22652408 2.88821817 -16.875 2.625 C-16.20984375 2.49867188 -15.5446875 2.37234375 -14.859375 2.2421875 C-11.70311395 1.62331279 -8.73216043 0.90565462 -5.6953125 -0.1640625 C-3 -1 -3 -1 0 0 Z "
        fill="#2C2C2C" transform="translate(286,212)" />
    <path
        d="M0 0 C4.60416626 0.60875755 8.56483324 1.84722956 12.875 3.5625 C14.02742187 4.01753906 15.17984375 4.47257813 16.3671875 4.94140625 C17.67042969 5.46541016 17.67042969 5.46541016 19 6 C13.98114851 7.7154504 9.78531 5.77806349 5 4 C1.875 2.375 1.875 2.375 0 1 C0 0.67 0 0.34 0 0 Z "
        fill="#2C2C2C" transform="translate(217,227)" />
    <path
        d="M0 0 C0.99 0.33 1.98 0.66 3 1 C2.34 4.96 1.68 8.92 1 13 C0.01 12.67 -0.98 12.34 -2 12 C-1.85831863 10.56208484 -1.71148957 9.1246763 -1.5625 7.6875 C-1.48128906 6.88699219 -1.40007812 6.08648437 -1.31640625 5.26171875 C-1 3 -1 3 0 0 Z "
        fill="#222222" transform="translate(189,111)" />
    <path
        d="M0 0 C-2.79738782 1.5067748 -5.40322432 2.48224115 -8.5 3.1875 C-9.2528125 3.36667969 -10.005625 3.54585937 -10.78125 3.73046875 C-13.14833379 4.01801942 -14.74544015 3.72248395 -17 3 C-15.1096624 2.29753005 -13.21243172 1.61359151 -11.3125 0.9375 C-10.25675781 0.55464844 -9.20101563 0.17179688 -8.11328125 -0.22265625 C-4.90666208 -1.0233052 -3.1313693 -0.9237249 0 0 Z "
        fill="#3E3E3E" transform="translate(314,163)" />
    <path
        d="M0 0 C0.99 0 1.98 0 3 0 C1.77472971 4.05281712 0.30119506 7.44360764 -2 11 C-3.13643966 7.59068103 -2.86747764 6.99664544 -1.5625 3.8125 C-1.13130859 2.73935547 -1.13130859 2.73935547 -0.69140625 1.64453125 C-0.46324219 1.10183594 -0.23507812 0.55914062 0 0 Z "
        fill="#292929" transform="translate(324,270)" />
    <path
        d="M0 0 C1.07765625 0.11988281 2.1553125 0.23976563 3.265625 0.36328125 C4.08546875 0.47027344 4.9053125 0.57726562 5.75 0.6875 C5.75 1.0175 5.75 1.3475 5.75 1.6875 C-2.17 2.1825 -2.17 2.1825 -10.25 2.6875 C-5.79547969 -0.65339023 -5.20185771 -0.62196125 0 0 Z "
        fill="#555555" transform="translate(292.25,380.3125)" />
    <path
        d="M0 0 C1.485 0.99 1.485 0.99 3 2 C3.40843923 4.71203652 3.13336867 7.2437142 3 10 C1.5 8.9375 1.5 8.9375 0 7 C-0.1875 3.3125 -0.1875 3.3125 0 0 Z "
        fill="#313131" transform="translate(303,391)" />
    <path
        d="M0 0 C0.66 0 1.32 0 2 0 C1.1875 3.4375 1.1875 3.4375 0 7 C-0.99 7.33 -1.98 7.66 -3 8 C-2.45276317 4.62537285 -1.9451 2.91765 0 0 Z "
        fill="#161616" transform="translate(320,324)" />
    <path
        d="M0 0 C2.64 0 5.28 0 8 0 C7.67 0.99 7.34 1.98 7 3 C4.625 3.1875 4.625 3.1875 2 3 C1.34 2.01 0.68 1.02 0 0 Z "
        fill="#181818" transform="translate(256,184)" />
    <path d="M0 0 C2.64 0 5.28 0 8 0 C7.67 0.99 7.34 1.98 7 3 C2.25 2.25 2.25 2.25 0 0 Z " fill="#ECECEC"
        transform="translate(266,165)" />
</svg>