<?xml version="1.0" encoding="UTF-8"?>
<svg version="1.1" viewBox="0 0 24 24" xmlns="http://www.w3.org/2000/svg">
    <g>
        <!-- Background circle -->
        <path d="m12 0c6.6289 0 12 5.3711 12 12s-5.3711 12-12 12-12-5.3711-12-12 5.3711-12 12-12z" fill="#000000" />
        <!-- white cat body shape -->
        <path
            d="m9.0703 4.8945c0.53906 0.027344 0.98047 0.37109 1.3945 0.6875 0.12891 0.097657 0.23047 0.17578 0.38281 0.22656-0.03125-0.078125-0.0625-0.16016-0.09375-0.24219 0.78125-0.25781 1.8242 0.039063 2.5391 0.38281 0.38672 0.19531 0.73438 0.4375 1.0586 0.72266 0.035157 0.03125 0.070313 0.058594 0.10547 0.089844 0.25391 0.23438 0.4375 0.5 0.56641 0.82422v0.19141c-0.22266 0.0625-0.44141 0.125-0.67188 0.19141 0.082032-0.015625 0.16797-0.03125 0.25391-0.046875 0.16016-0.03125 0.30078-0.050781 0.46484-0.050781 0.015626 0.082031 0.035157 0.16016 0.050782 0.24219-0.23828 0.023438-0.23828 0.023438-0.48047 0.046875h0.48047c0.015625 0.078125 0.03125 0.16016 0.046875 0.23828h-0.76953c0.25391 0.015624 0.50781 0.035156 0.76953 0.050781 0.03125 0.4375-0.066407 0.86719-0.27344 1.2578-0.082031 0.13281-0.082031 0.13281-0.015625 0.27734 0.03125 0.015625 0.066406 0.03125 0.097656 0.046875v0.097656c-0.0625 0.015625-0.12891 0.03125-0.19141 0.046875 0.023438 0.027344 0.046875 0.054688 0.074219 0.085938 0.59766 0.71094 0.59766 0.71094 0.59766 1.1133-0.046875 0.015625-0.097656 0.03125-0.14453 0.050781 0.015625 0.023438 0.03125 0.046875 0.046875 0.070313 0.035156 0.050781 0.035156 0.050781 0.066406 0.10156 0.019531 0.03125 0.042969 0.066406 0.0625 0.097656 0.21094 0.37891 0.21875 0.78906 0.11719 1.1992-0.035157 0.10938-0.070313 0.21875-0.10938 0.32422-0.046875 0.11719-0.046875 0.11719-0.039063 0.22266 0.015625-0.039062 0.03125-0.074218 0.046875-0.10938 0.023438-0.046875 0.042969-0.09375 0.066406-0.14453 0.019532-0.046875 0.042969-0.09375 0.0625-0.14062 0.050782-0.10938 0.10547-0.21875 0.16016-0.32812 0.34766 0.23438 0.42969 0.54688 0.51562 0.9375 0.019531 0.10547 0.039062 0.20703 0.058594 0.3125 0.03125 0.003906 0.058593 0.007812 0.089843 0.011719 0.21484 0.074219 0.29297 0.32422 0.39062 0.51562 0.4375 0.90234 0.77734 1.9219 0.5 2.9258-0.19141 0.52734-0.46875 0.96484-0.97656 1.2266-0.86328 0.375-0.86328 0.375-1.25 0.26172-0.1875-0.19141-0.28516-0.42969-0.29688-0.69531 0.003906-0.24219 0.039062-0.47656 0.078125-0.71094 0.007812-0.050781 0.019531-0.097656 0.027344-0.14453 0.10937-0.59375 0.25391-1.2617 0.52734-1.8086-0.62109 0.57031-0.71094 1.8516-0.86328 2.6406-0.050781 0.003906-0.10156 0.003906-0.15234 0.007813-0.0625 0.003906-0.12891 0.007812-0.19531 0.011719-0.046875 0-0.046875 0-0.097656 0.003906-0.19141 0.011718-0.34375 0.039062-0.51563 0.12109 0.054688-0.003907 0.10938-0.003907 0.16797-0.007813 0.074219 0 0.14844-0.003906 0.22266-0.003906 0.035156 0 0.070312-0.003907 0.10937-0.003907 0.25781-0.003906 0.39844 0.035157 0.60156 0.20703 0.12891 0.19141 0.17969 0.34766 0.14453 0.57812-0.09375 0.089843-0.09375 0.089843-0.19141 0.14062-0.011719-0.097656-0.019531-0.19531-0.03125-0.29297-0.007812-0.089844-0.007812-0.089844-0.0625-0.13672-0.011719 0.089844-0.011719 0.089844-0.019531 0.1875-0.019531 0.18359-0.019531 0.18359-0.125 0.29297-0.14453 0.011719-0.28906 0.003906-0.43359 0-0.015625-0.17578-0.03125-0.34766-0.046875-0.52734h-0.097656c0.003906 0.046875 0.003906 0.046875 0.007812 0.10156 0 0.042968 0 0.085937 0.003906 0.13281 0 0.0625 0 0.0625 0.003907 0.12891-0.003907 0.039063-0.011719 0.078126-0.015625 0.11328-0.15234 0.10547-0.20312 0.12109-0.38281 0.097656-0.078125-0.058594-0.078125-0.058594-0.14453-0.14453-0.015625-0.11719-0.015625-0.11719-0.007812-0.25 0-0.0625 0-0.0625 0.003906-0.12891 0-0.035156 0.003906-0.066406 0.003906-0.10156h-0.097656c-0.023438 0.28516-0.023438 0.28516-0.046875 0.57812-0.19141-0.050781-0.19141-0.050781-0.23828-0.097656-0.007813-0.10547-0.007813-0.20703-0.007813-0.3125 0-0.03125-0.003906-0.066407-0.003906-0.10156v-0.21094c0-0.11719-0.003907-0.23047-0.003907-0.34375-0.003906-0.32422-0.003906-0.64453-0.007812-0.96875 0-0.19922-0.003906-0.39453-0.007812-0.59375v-0.22266c-0.003907-0.43359-0.023438-0.85156-0.11328-1.2773v0.097656c0 0.31641 0 0.62891 0.003906 0.94141v0.48438c0.003907 1.2305 0.003907 1.2305-0.027343 1.8281 0 0.039063 0 0.078125-0.003907 0.12109-0.015624 0.26562-0.015624 0.26562-0.070312 0.32031-0.11328 0.003906-0.22266 0.003906-0.33594 0.003906h-0.10547-0.21484-0.33203-0.20703-0.10156c-0.23047 0-0.23047 0-0.28516-0.054688-0.019531-0.12891-0.039063-0.25781-0.054688-0.38672-0.003906-0.039063-0.007812-0.078126-0.011719-0.12109-0.015624-0.12891-0.03125-0.26172-0.046874-0.39453-0.011719-0.089843-0.023438-0.17969-0.035157-0.26953-0.03125-0.26562-0.0625-0.52734-0.09375-0.79297-0.003906-0.058593-0.003906-0.058593-0.011719-0.11328-0.023437-0.21484-0.050781-0.43359-0.074218-0.64844-0.003906-0.054688-0.011719-0.10547-0.015625-0.16016-0.035157-0.31641-0.046875-0.63281-0.039063-0.95313h-0.097656c0.015625 0.89453 0.085938 1.7734 0.17578 2.6602 0.10938 1.125 0.10938 1.125 0.0625 1.4688-0.14062 0.097656-0.14062 0.097656-0.38281 0.097656-0.023438-0.23828-0.023438-0.23828-0.046875-0.48047-0.015625 0.078125-0.027344 0.15234-0.039063 0.23438-0.023437 0.12891-0.023437 0.12891-0.058593 0.24609-0.17969 0.11719-0.26953 0.11719-0.48047 0.09375-0.11328-0.070313-0.11328-0.070313-0.19141-0.19141-0.027343-0.12891-0.039062-0.25-0.046874-0.38281-0.03125 0.15625-0.0625 0.31641-0.097657 0.48047-0.16016 0.007813-0.16016 0.007813-0.33594 0-0.11719-0.17578-0.10156-0.27344-0.09375-0.48047-0.09375 0.09375-0.082032 0.25781-0.097656 0.38281-0.046876-0.03125-0.09375-0.0625-0.14453-0.09375-0.027344-0.18359-0.007812-0.27344 0.078125-0.44141 0.13672-0.16406 0.27344-0.3125 0.5-0.33984 0.10156 0.003906 0.20312 0.011719 0.30469 0.023437 0.054687 0.003906 0.054687 0.003906 0.10547 0.011719 0.089843 0.007813 0.17578 0.015625 0.26172 0.023437-0.23047-0.10547-0.41797-0.16406-0.67188-0.19141-0.25391-0.71484-0.50391-1.4297-0.70312-2.1641-0.042968-0.16016-0.09375-0.32031-0.14062-0.48047-0.015625-0.042969-0.027343-0.082031-0.039062-0.125-0.023438-0.078125-0.050781-0.15234-0.074219-0.22656-0.23047-0.74609-0.26953-1.4844-0.26953-2.2617 0-0.16406-0.003907-0.32422-0.007813-0.49219-0.003906-0.64844 0.066406-1.1875 0.32031-1.7852-0.046875-0.03125-0.09375-0.0625-0.14453-0.097656l0.19531-0.09375c0.035156 0.035156 0.070312 0.074218 0.10938 0.11328 0.125 0.12891 0.125 0.12891 0.27344 0.22266-0.023437-0.035156-0.046874-0.070312-0.070312-0.10547-0.28125-0.43359-0.42969-0.76562-0.45703-1.2891-0.074219 0.027344-0.074219 0.027344-0.14453 0.050781 0.007812-0.09375 0.011718-0.18359 0.019531-0.27344 0.003906-0.050782 0.007812-0.10156 0.011719-0.15234 0.015624-0.13281 0.035156-0.26172 0.0625-0.39062-0.046876-0.015625-0.09375-0.03125-0.14063-0.046875 0.14063-0.43359 0.14063-0.43359 0.17969-0.52344 0.12109-0.32422 0.13281-0.64062 0.14453-0.98828 0.027344-0.49219 0.085938-0.96484 0.19922-1.4453 0.011719-0.050781 0.023438-0.10547 0.035156-0.16016 0.058594-0.22656 0.10156-0.39844 0.25391-0.58203z"
            fill="#ffffff" />
        <!-- white rim -->
        <path
            d="m14.641 0.76953c0.058594 0.011719 0.12109 0.027344 0.18359 0.042969 2.4141 0.60547 4.6719 2.0078 6.1992 3.9883 0.039062 0.046875 0.074218 0.09375 0.11328 0.14062 1.8516 2.3008 2.6172 5.3242 2.3594 8.2383-0.054688 0.49219-0.15625 0.97656-0.26562 1.4609-0.011719 0.058594-0.023438 0.11719-0.039063 0.17969-0.375 1.5156-1.0547 2.9648-2.0234 4.1875-0.046875 0.058594-0.046875 0.058594-0.09375 0.12109-0.54688 0.69922-1.1719 1.3516-1.875 1.8945-0.042969 0.035156-0.042969 0.035156-0.085938 0.066406-0.44922 0.35156-0.90625 0.66406-1.4023 0.94141-0.03125 0.019531-0.058594 0.035156-0.09375 0.054688-1.7383 0.99219-3.7109 1.4453-5.7031 1.4414h-0.097656c-3.082-0.007813-5.9414-1.3359-8.1133-3.4922-0.27734-0.27734-0.53516-0.56641-0.77344-0.88281-0.023438-0.03125-0.046876-0.058594-0.070313-0.089844-1.8594-2.4414-2.7148-5.5586-2.3242-8.6094 0.29688-1.9688 1.0508-3.8984 2.2969-5.4609 0.035157-0.042969 0.070313-0.085938 0.10547-0.13281 0.56641-0.70703 1.1914-1.3789 1.9102-1.9297 0.042969-0.035157 0.042969-0.035157 0.089844-0.070313 1.4609-1.1289 3.1211-1.8164 4.9102-2.2109 0.09375-0.023438 0.09375-0.023438 0.18359-0.074219 1.5-0.24219 3.1367-0.16016 4.6094 0.19531zm-8.7852 2.6875c-0.027344 0.019531-0.058594 0.039063-0.085938 0.0625-0.39062 0.28125-0.74219 0.59375-1.0898 0.92578-0.066407 0.0625-0.13281 0.125-0.19922 0.1875-0.32812 0.31641-0.60547 0.66797-0.87891 1.0312-0.035156 0.042969-0.070312 0.089844-0.10547 0.13672-1.5938 2.125-2.2969 4.8945-1.9453 7.5234 0.085938 0.57031 0.19531 1.1484 0.37109 1.6992 0.007813 0.03125 0.019531 0.0625 0.027344 0.097656 0.62891 2.0039 1.8477 3.8516 3.5234 5.1367 0.027344 0.019532 0.054688 0.039063 0.082032 0.0625 2.2812 1.7422 5.1016 2.4883 7.9492 2.1133 1.8438-0.26953 3.6289-1.043 5.0703-2.2266 0.027343-0.019531 0.054687-0.042969 0.082031-0.066406 1.957-1.6094 3.2578-3.8203 3.7109-6.3164 0.011718-0.0625 0.011718-0.0625 0.023437-0.125 0.48438-2.5625-0.16016-5.3555-1.6055-7.5078-0.6875-0.98828-1.4844-1.875-2.4492-2.5898-0.027344-0.023437-0.054688-0.042968-0.082032-0.0625-1.2812-0.97656-2.8086-1.5977-4.3828-1.9062-0.054688-0.011718-0.10938-0.023437-0.16797-0.035156-2.7266-0.50391-5.6211 0.24219-7.8477 1.8594z"
            fill="#ffffff" />
        <!-- Tail and left leg -->
        <path
            d="m8.1133 14.594c0.10547 0.16016 0.13281 0.27734 0.17578 0.46484 0.125 0.52344 0.28906 1.0352 0.45313 1.5508 0.046874 0.14453 0.089843 0.28906 0.13672 0.43359 0.027344 0.089843 0.054688 0.17969 0.085938 0.26953 0.24219 0.76953 0.24219 0.76953 0.15625 0.97656-0.039063 0.027344-0.074219 0.050782-0.11328 0.078126-0.13672 0.12109-0.16797 0.19141-0.23047 0.35937-0.019532 0.042969-0.035156 0.085938-0.050782 0.13281-0.011718 0.03125-0.027343 0.066406-0.039062 0.10156-0.21484 0.003906-0.42969 0.007812-0.64062 0.007812-0.074219 0.003906-0.14844 0.003906-0.21875 0.003906-0.48828 0.011719-0.88672-0.027344-1.3477-0.20312v-0.097656c0.042969-0.011719 0.042969-0.011719 0.082031-0.023437 0.12891-0.035157 0.25391-0.070313 0.38281-0.10938 0.042969-0.011718 0.085938-0.023437 0.13281-0.035156 0.23828-0.070312 0.42188-0.13281 0.60156-0.3125 0.015624-0.03125 0.03125-0.0625 0.046874-0.09375 0.20703 0.085938 0.32813 0.22656 0.47656 0.38672 0.10938 0.097656 0.20312 0.14062 0.33984 0.1875-0.070313-0.0625-0.070313-0.0625-0.14062-0.12891-0.62109-0.625-0.92969-1.3438-0.92969-2.2227 0.011719-0.61719 0.25391-1.2422 0.64062-1.7266z"
            fill="#ffffff" />
        <!-- right ear -->
        <path
            d="m14.164 4.5938c0.11328 0.078125 0.125 0.11719 0.15234 0.25 0.007813 0.039062 0.015625 0.078125 0.023438 0.11719 0.011718 0.0625 0.011718 0.0625 0.023437 0.12891 0.007813 0.039062 0.015625 0.082031 0.027344 0.125 0.074219 0.42578 0.074219 0.83984 0.058594 1.2656-0.19141-0.089844-0.36328-0.20312-0.54297-0.32031-0.03125-0.019531-0.0625-0.039062-0.09375-0.058594-0.074219-0.050781-0.15234-0.10156-0.22656-0.14844 0.023437-0.23828 0.097656-0.40234 0.21094-0.60938 0.03125-0.054688 0.058594-0.10938 0.089844-0.16406 0.054687-0.097657 0.11719-0.19141 0.17578-0.28516-0.27734 0.28125-0.45703 0.60938-0.62109 0.96094-0.35938-0.14062-0.35938-0.14062-0.72266-0.28906 0.19922-0.39062 0.66016-0.625 1.0352-0.84766 0.027344-0.015625 0.054688-0.035156 0.082032-0.050781 0.19922-0.11719 0.19922-0.11719 0.32812-0.074219z"
            fill="#ffffff" />
        <!-- left inner ear -->
        <path
            d="m9.168 5.1836c0.30078 0.039062 0.43359 0.20703 0.625 0.43359 0.40625 0.54687 0.40625 0.54687 0.38281 0.86328-0.09375 0.16797-0.19531 0.27344-0.38281 0.33594 0.03125-0.0625 0.0625-0.12891 0.09375-0.19141-0.19531 0.023438-0.29297 0.074219-0.4375 0.21094-0.03125 0.027343-0.0625 0.054687-0.09375 0.085937-0.058594 0.054687-0.11328 0.10938-0.16797 0.16797-0.066406 0.0625-0.066406 0.0625-0.16406 0.0625-0.097657-0.24609-0.11328-0.46094-0.10938-0.72266v-0.12109c0.003907-0.38672 0.035157-0.79688 0.25391-1.125z"
            fill="#ffffff" />
        <path
            d="m11.621 7.0938c0.16016 0.085938 0.29688 0.17969 0.37891 0.34766 0 0.11719 0 0.11719-0.046875 0.23828-0.22266 0.20312-0.36719 0.25781-0.66016 0.25391-0.16797-0.019532-0.24219-0.074219-0.34766-0.20703-0.039062-0.17969-0.039062-0.17969-0.050781-0.33594-0.10938 0.03125-0.21875 0.066406-0.33594 0.097656 0.019531-0.125 0.035156-0.17969 0.13281-0.26172 0.30078-0.17578 0.58984-0.25781 0.92969-0.13281z"
            fill="#000000" />
        <!-- <path
            d="m9.168 5.1836c0.30078 0.039062 0.43359 0.20703 0.625 0.43359 0.40625 0.54687 0.40625 0.54687 0.38281 0.86328-0.09375 0.16797-0.19531 0.27344-0.38281 0.33594 0.03125-0.0625 0.0625-0.12891 0.09375-0.19141-0.19531 0.023438-0.29297 0.074219-0.4375 0.21094-0.03125 0.027343-0.0625 0.054687-0.09375 0.085937-0.058594 0.054687-0.11328 0.10938-0.16797 0.16797-0.066406 0.0625-0.066406 0.0625-0.16406 0.0625-0.097657-0.24609-0.11328-0.46094-0.10938-0.72266v-0.12109c0.003907-0.38672 0.035157-0.79688 0.25391-1.125zm0.046875 0.097656c-0.15625 0.5625-0.16016 1.0977-0.14453 1.6797h0.097657c0.019531-0.035157 0.035156-0.070313 0.054687-0.10547 0.17578-0.26172 0.46094-0.39062 0.76172-0.47266-0.10156-0.39844-0.30078-0.70312-0.57812-1.0078-0.10156-0.0625-0.10156-0.0625-0.19141-0.09375z"
            fill="#181818" /> -->
        <path
            d="m14.16 6.9102c0.12109 0.070313 0.12109 0.070313 0.19141 0.14453v0.097656h-0.19141c0.003906 0.0625 0.003906 0.0625 0.011719 0.12891-0.015625 0.19922-0.054687 0.26953-0.20312 0.39844-0.16797 0.023437-0.27734 0.03125-0.42578-0.046876-0.085938-0.15234-0.11328-0.30859-0.10156-0.48047 0.19531-0.32031 0.37891-0.30859 0.71875-0.24219z"
            fill="#000000" />
        <path
            d="m12.719 7.8242h0.57812c0.015625 0.0625 0.03125 0.125 0.046875 0.19141-0.023438 0.027344-0.046875 0.054687-0.070312 0.085937-0.11328 0.16406-0.089844 0.28906-0.074219 0.49219 0.11328 0.11328 0.18359 0.11719 0.33594 0.14062-0.015625 0.050781-0.03125 0.097656-0.046875 0.14453-0.21875 0.019532-0.21875 0.019532-0.32812-0.070312-0.019531-0.023438-0.035156-0.046875-0.054687-0.074219-0.10938 0.050781-0.19141 0.097656-0.28125 0.17578-0.15234 0.09375-0.26562 0.085938-0.44141 0.066406-0.03125-0.046874-0.0625-0.09375-0.09375-0.14453 0.085938-0.003906 0.085938-0.003906 0.17578-0.007812 0.16016-0.023438 0.21094-0.042969 0.35156-0.14062 0.10547-0.13672 0.10547-0.13672 0.12891-0.3125-0.019531-0.17578-0.019531-0.17578-0.17578-0.28125-0.050781-0.023438-0.097656-0.046875-0.14453-0.074219 0.03125-0.0625 0.0625-0.125 0.09375-0.19141z"
            fill="#000000" />
        <!-- <path
            d="m9.0234 5.8555h0.046874v1.1523h-0.09375c-0.066406-0.20312-0.058593-0.39062-0.058593-0.60156v-0.12891-0.12109-0.11328c0.011719-0.089844 0.011719-0.089844 0.10547-0.1875z"
            fill="#000000" /> -->
        <path
            d="m11.328 8.3984v0.050781c-0.21094 0.03125-0.41797 0.0625-0.62891 0.09375-0.058594 0.011719-0.11719 0.019531-0.17578 0.027343-0.085938 0.015626-0.085938 0.015626-0.17578 0.027344-0.078125 0.011719-0.078125 0.011719-0.16016 0.023438-0.16406 0.019531-0.32422 0.023437-0.49219 0.019531 0.17188-0.10156 0.35156-0.13672 0.54688-0.17578 0.035156-0.003906 0.066406-0.011719 0.10156-0.019532 0.32812-0.054687 0.64844-0.058593 0.98438-0.046874z"
            fill="#000000" />
        <path
            d="m11.375 8.5938c-0.16797 0.16797-0.41797 0.1875-0.64844 0.24609-0.074218 0.023437-0.074218 0.023437-0.15625 0.042968-0.046874 0.011719-0.097656 0.023438-0.14844 0.039063-0.066406 0.015625-0.066406 0.015625-0.13672 0.035156-0.10938 0.019531-0.10938 0.019531-0.20703-0.027343 0.87109-0.36719 0.87109-0.36719 1.2969-0.33594z"
            fill="#000000" />
    </g>
</svg>